<svg xmlns="http://www.w3.org/2000/svg" width="900" height="520" viewBox="0 0 900 520"><rect width="900" height="520" rx="28" fill="#eef5fb"/><text x="34" y="46" font-family="Arial" font-size="28" font-weight="700" fill="#142536">Barbell bent-over row</text><text x="34" y="72" font-family="Arial" font-size="16" fill="#6c7b89">Start → finish · home equipment form guide</text><rect x="50" y="98" width="395" height="330" rx="24" fill="#fff" stroke="#d8e3ed" stroke-width="2"/><text x="72" y="132" font-family="Arial" font-size="18" font-weight="700" fill="#0a64d8">START</text><rect x="455" y="98" width="395" height="330" rx="24" fill="#fff" stroke="#d8e3ed" stroke-width="2"/><text x="477" y="132" font-family="Arial" font-size="18" font-weight="700" fill="#27955f">FINISH</text><line x1="60" y1="398" x2="840" y2="398" stroke="#c9d5df" stroke-width="3"/><circle cx="205" cy="220" r="22" fill="#d59a72"/><line x1="225" y1="240" x2="315" y2="275" stroke="#174a70" stroke-width="16" stroke-linecap="round"/><line x1="245" y1="248" x2="235" y2="325" stroke="#174a70" stroke-width="13" stroke-linecap="round"/><line x1="280" y1="260" x2="285" y2="325" stroke="#174a70" stroke-width="13" stroke-linecap="round"/><line x1="315" y1="275" x2="280" y2="385" stroke="#174a70" stroke-width="13" stroke-linecap="round"/><line x1="315" y1="275" x2="355" y2="385" stroke="#174a70" stroke-width="13" stroke-linecap="round"/><line x1="190" y1="330" x2="330" y2="330" stroke="#2f3841" stroke-width="8"/><rect x="180" y="306" width="14" height="48" rx="4" fill="#1b232b"/><rect x="326" y="306" width="14" height="48" rx="4" fill="#1b232b"/><circle cx="610" cy="220" r="22" fill="#d59a72"/><line x1="630" y1="240" x2="720" y2="275" stroke="#174a70" stroke-width="16" stroke-linecap="round"/><line x1="650" y1="248" x2="640" y2="285" stroke="#174a70" stroke-width="13" stroke-linecap="round"/><line x1="685" y1="260" x2="690" y2="285" stroke="#174a70" stroke-width="13" stroke-linecap="round"/><line x1="720" y1="275" x2="685" y2="385" stroke="#174a70" stroke-width="13" stroke-linecap="round"/><line x1="720" y1="275" x2="760" y2="385" stroke="#174a70" stroke-width="13" stroke-linecap="round"/><line x1="595" y1="290" x2="735" y2="290" stroke="#2f3841" stroke-width="8"/><rect x="585" y="266" width="14" height="48" rx="4" fill="#1b232b"/><rect x="731" y="266" width="14" height="48" rx="4" fill="#1b232b"/><rect x="50" y="444" width="800" height="50" rx="16" fill="#e7f1f9"/><text x="72" y="476" font-family="Arial" font-size="18" font-weight="600" fill="#27465e">Key cue: hold the hip hinge; pull bar to lower ribs without standing up</text></svg>