<svg xmlns="http://www.w3.org/2000/svg" width="900" height="520" viewBox="0 0 900 520"><rect width="900" height="520" rx="28" fill="#eef5fb"/><text x="34" y="46" font-family="Arial" font-size="28" font-weight="700" fill="#142536">Bulgarian split squat</text><text x="34" y="72" font-family="Arial" font-size="16" fill="#6c7b89">Start → finish · home equipment form guide</text><rect x="50" y="98" width="395" height="330" rx="24" fill="#fff" stroke="#d8e3ed" stroke-width="2"/><text x="72" y="132" font-family="Arial" font-size="18" font-weight="700" fill="#0a64d8">START</text><rect x="455" y="98" width="395" height="330" rx="24" fill="#fff" stroke="#d8e3ed" stroke-width="2"/><text x="477" y="132" font-family="Arial" font-size="18" font-weight="700" fill="#27955f">FINISH</text><line x1="60" y1="398" x2="840" y2="398" stroke="#c9d5df" stroke-width="3"/><g transform="rotate(0 380.0 330)"><rect x="320" y="330" width="120" height="18" rx="8" fill="#58636d"/><line x1="355" y1="348" x2="335" y2="400" stroke="#58636d" stroke-width="10"/><line x1="405" y1="348" x2="425" y2="400" stroke="#58636d" stroke-width="10"/></g><circle cx="220" cy="170" r="22" fill="#d59a72"/><line x1="220" y1="195" x2="220" y2="285" stroke="#174a70" stroke-width="16" stroke-linecap="round"/><line x1="220" y1="230" x2="185" y2="260" stroke="#174a70" stroke-width="13" stroke-linecap="round"/><line x1="220" y1="230" x2="255" y2="260" stroke="#174a70" stroke-width="13" stroke-linecap="round"/><line x1="220" y1="285" x2="190" y2="385" stroke="#174a70" stroke-width="13" stroke-linecap="round"/><line x1="220" y1="285" x2="315" y2="330" stroke="#174a70" stroke-width="13" stroke-linecap="round"/><g transform="translate(180 300) rotate(90) scale(0.55)"><line x1="-38" y1="0" x2="38" y2="0" stroke="#2e3944" stroke-width="8"/><rect x="-52" y="-16" width="15" height="32" rx="4" fill="#1b232b"/><rect x="37" y="-16" width="15" height="32" rx="4" fill="#1b232b"/></g><g transform="translate(260 300) rotate(90) scale(0.55)"><line x1="-38" y1="0" x2="38" y2="0" stroke="#2e3944" stroke-width="8"/><rect x="-52" y="-16" width="15" height="32" rx="4" fill="#1b232b"/><rect x="37" y="-16" width="15" height="32" rx="4" fill="#1b232b"/></g><g transform="rotate(0 785.0 330)"><rect x="725" y="330" width="120" height="18" rx="8" fill="#58636d"/><line x1="760" y1="348" x2="740" y2="400" stroke="#58636d" stroke-width="10"/><line x1="810" y1="348" x2="830" y2="400" stroke="#58636d" stroke-width="10"/></g><circle cx="625" cy="205" r="22" fill="#d59a72"/><line x1="625" y1="230" x2="625" y2="305" stroke="#174a70" stroke-width="16" stroke-linecap="round"/><line x1="625" y1="255" x2="590" y2="285" stroke="#174a70" stroke-width="13" stroke-linecap="round"/><line x1="625" y1="255" x2="660" y2="285" stroke="#174a70" stroke-width="13" stroke-linecap="round"/><line x1="625" y1="305" x2="585" y2="340" stroke="#174a70" stroke-width="13" stroke-linecap="round"/><line x1="585" y1="340" x2="575" y2="390" stroke="#174a70" stroke-width="13" stroke-linecap="round"/><line x1="625" y1="305" x2="720" y2="330" stroke="#174a70" stroke-width="13" stroke-linecap="round"/><g transform="translate(585 320) rotate(90) scale(0.55)"><line x1="-38" y1="0" x2="38" y2="0" stroke="#2e3944" stroke-width="8"/><rect x="-52" y="-16" width="15" height="32" rx="4" fill="#1b232b"/><rect x="37" y="-16" width="15" height="32" rx="4" fill="#1b232b"/></g><g transform="translate(665 320) rotate(90) scale(0.55)"><line x1="-38" y1="0" x2="38" y2="0" stroke="#2e3944" stroke-width="8"/><rect x="-52" y="-16" width="15" height="32" rx="4" fill="#1b232b"/><rect x="37" y="-16" width="15" height="32" rx="4" fill="#1b232b"/></g><rect x="50" y="444" width="800" height="50" rx="16" fill="#e7f1f9"/><text x="72" y="476" font-family="Arial" font-size="18" font-weight="600" fill="#27465e">Key cue: front foot far enough forward; lower straight down with control</text></svg>