<svg xmlns="http://www.w3.org/2000/svg" width="400" height="270" viewBox="0 0 400 270">
      <rect width="400" height="270" rx="28" fill="#ffe4ec"/>
      <rect x="18" y="18" width="118" height="32" rx="16" fill="#ef6a88"/>
      <text x="77" y="39" fill="#fff" font-family="-apple-system,Arial" font-size="14" font-weight="800" text-anchor="middle">Triceps</text>
      <path d="M55 225 H345" stroke="#b8c4cf" stroke-width="4" stroke-linecap="round"/><rect x="85" y="183" width="210" height="15" rx="8" fill="#536273"/><path d="M115 198 L100 226 M265 198 L280 226" stroke="#536273" stroke-width="7"/><circle cx="122" cy="153" r="15" fill="#d8a071"/><path d="M140 163 L245 163" stroke="#133c5d" stroke-width="12" stroke-linecap="round"/><path d="M155 168 L130 214 M230 168 L260 214" stroke="#133c5d" stroke-width="10" stroke-linecap="round"/><path d="M170 156 L170 110 M215 156 L215 110" stroke="#133c5d" stroke-width="9" stroke-linecap="round"/><path d="M130 105 H255" stroke="#252c34" stroke-width="7"/><circle cx="126" cy="105" r="14" fill="#252c34"/><circle cx="259" cy="105" r="14" fill="#252c34"/>
      <text x="200" y="252" fill="#17374f" font-family="-apple-system,Arial" font-size="15" font-weight="800" text-anchor="middle">Close-grip bench press</text>
    </svg>