<svg xmlns="http://www.w3.org/2000/svg" width="900" height="520" viewBox="0 0 900 520"><rect width="900" height="520" rx="28" fill="#eef5fb"/><text x="34" y="46" font-family="Arial" font-size="28" font-weight="700" fill="#142536">Hip thrust</text><text x="34" y="72" font-family="Arial" font-size="16" fill="#6c7b89">Start → finish · home equipment form guide</text><rect x="50" y="98" width="395" height="330" rx="24" fill="#fff" stroke="#d8e3ed" stroke-width="2"/><text x="72" y="132" font-family="Arial" font-size="18" font-weight="700" fill="#0a64d8">START</text><rect x="455" y="98" width="395" height="330" rx="24" fill="#fff" stroke="#d8e3ed" stroke-width="2"/><text x="477" y="132" font-family="Arial" font-size="18" font-weight="700" fill="#27955f">FINISH</text><line x1="60" y1="398" x2="840" y2="398" stroke="#c9d5df" stroke-width="3"/><g transform="rotate(0 160.0 250)"><rect x="95" y="250" width="130" height="18" rx="8" fill="#58636d"/><line x1="130" y1="268" x2="110" y2="320" stroke="#58636d" stroke-width="10"/><line x1="190" y1="268" x2="210" y2="320" stroke="#58636d" stroke-width="10"/></g><circle cx="205" cy="235" r="20" fill="#d59a72"/><line x1="220" y1="250" x2="300" y2="315" stroke="#174a70" stroke-width="16" stroke-linecap="round"/><line x1="260" y1="280" x2="335" y2="330" stroke="#174a70" stroke-width="13" stroke-linecap="round"/><line x1="335" y1="330" x2="355" y2="390" stroke="#174a70" stroke-width="13" stroke-linecap="round"/><line x1="300" y1="315" x2="245" y2="355" stroke="#174a70" stroke-width="13" stroke-linecap="round"/><line x1="245" y1="355" x2="230" y2="390" stroke="#174a70" stroke-width="13" stroke-linecap="round"/><line x1="245" y1="325" x2="355" y2="325" stroke="#2f3841" stroke-width="8"/><rect x="235" y="301" width="14" height="48" rx="4" fill="#1b232b"/><rect x="351" y="301" width="14" height="48" rx="4" fill="#1b232b"/><g transform="rotate(0 565.0 250)"><rect x="500" y="250" width="130" height="18" rx="8" fill="#58636d"/><line x1="535" y1="268" x2="515" y2="320" stroke="#58636d" stroke-width="10"/><line x1="595" y1="268" x2="615" y2="320" stroke="#58636d" stroke-width="10"/></g><circle cx="610" cy="235" r="20" fill="#d59a72"/><line x1="625" y1="250" x2="705" y2="280" stroke="#174a70" stroke-width="16" stroke-linecap="round"/><line x1="665" y1="265" x2="740" y2="300" stroke="#174a70" stroke-width="13" stroke-linecap="round"/><line x1="740" y1="300" x2="760" y2="390" stroke="#174a70" stroke-width="13" stroke-linecap="round"/><line x1="705" y1="280" x2="650" y2="300" stroke="#174a70" stroke-width="13" stroke-linecap="round"/><line x1="650" y1="300" x2="635" y2="390" stroke="#174a70" stroke-width="13" stroke-linecap="round"/><line x1="650" y1="290" x2="760" y2="290" stroke="#2f3841" stroke-width="8"/><rect x="640" y="266" width="14" height="48" rx="4" fill="#1b232b"/><rect x="756" y="266" width="14" height="48" rx="4" fill="#1b232b"/><rect x="50" y="444" width="800" height="50" rx="16" fill="#e7f1f9"/><text x="72" y="476" font-family="Arial" font-size="18" font-weight="600" fill="#27465e">Key cue: drive through heels and squeeze glutes; finish with ribs down</text></svg>