<svg xmlns="http://www.w3.org/2000/svg" width="900" height="520" viewBox="0 0 900 520"><rect width="900" height="520" rx="28" fill="#eef5fb"/><text x="34" y="46" font-family="Arial" font-size="28" font-weight="700" fill="#142536">One-arm dumbbell row</text><text x="34" y="72" font-family="Arial" font-size="16" fill="#6c7b89">Start → finish · home equipment form guide</text><rect x="50" y="98" width="395" height="330" rx="24" fill="#fff" stroke="#d8e3ed" stroke-width="2"/><text x="72" y="132" font-family="Arial" font-size="18" font-weight="700" fill="#0a64d8">START</text><rect x="455" y="98" width="395" height="330" rx="24" fill="#fff" stroke="#d8e3ed" stroke-width="2"/><text x="477" y="132" font-family="Arial" font-size="18" font-weight="700" fill="#27955f">FINISH</text><line x1="60" y1="398" x2="840" y2="398" stroke="#c9d5df" stroke-width="3"/><g transform="rotate(0 235.0 315)"><rect x="120" y="315" width="230" height="18" rx="8" fill="#58636d"/><line x1="155" y1="333" x2="135" y2="385" stroke="#58636d" stroke-width="10"/><line x1="315" y1="333" x2="335" y2="385" stroke="#58636d" stroke-width="10"/></g><circle cx="230" cy="210" r="22" fill="#d59a72"/><line x1="248" y1="230" x2="330" y2="275" stroke="#174a70" stroke-width="16" stroke-linecap="round"/><line x1="270" y1="245" x2="210" y2="300" stroke="#174a70" stroke-width="13" stroke-linecap="round"/><line x1="330" y1="275" x2="370" y2="305" stroke="#174a70" stroke-width="13" stroke-linecap="round"/><line x1="370" y1="305" x2="390" y2="390" stroke="#174a70" stroke-width="13" stroke-linecap="round"/><line x1="330" y1="275" x2="285" y2="310" stroke="#174a70" stroke-width="13" stroke-linecap="round"/><line x1="285" y1="310" x2="255" y2="390" stroke="#174a70" stroke-width="13" stroke-linecap="round"/><g transform="translate(390 325) rotate(90) scale(0.7)"><line x1="-38" y1="0" x2="38" y2="0" stroke="#2e3944" stroke-width="8"/><rect x="-52" y="-16" width="15" height="32" rx="4" fill="#1b232b"/><rect x="37" y="-16" width="15" height="32" rx="4" fill="#1b232b"/></g><g transform="rotate(0 640.0 315)"><rect x="525" y="315" width="230" height="18" rx="8" fill="#58636d"/><line x1="560" y1="333" x2="540" y2="385" stroke="#58636d" stroke-width="10"/><line x1="720" y1="333" x2="740" y2="385" stroke="#58636d" stroke-width="10"/></g><circle cx="635" cy="210" r="22" fill="#d59a72"/><line x1="653" y1="230" x2="735" y2="275" stroke="#174a70" stroke-width="16" stroke-linecap="round"/><line x1="675" y1="245" x2="615" y2="300" stroke="#174a70" stroke-width="13" stroke-linecap="round"/><line x1="735" y1="275" x2="775" y2="305" stroke="#174a70" stroke-width="13" stroke-linecap="round"/><line x1="775" y1="305" x2="795" y2="390" stroke="#174a70" stroke-width="13" stroke-linecap="round"/><line x1="735" y1="275" x2="700" y2="245" stroke="#174a70" stroke-width="13" stroke-linecap="round"/><line x1="700" y1="245" x2="680" y2="225" stroke="#174a70" stroke-width="13" stroke-linecap="round"/><g transform="translate(680 220) rotate(20) scale(0.7)"><line x1="-38" y1="0" x2="38" y2="0" stroke="#2e3944" stroke-width="8"/><rect x="-52" y="-16" width="15" height="32" rx="4" fill="#1b232b"/><rect x="37" y="-16" width="15" height="32" rx="4" fill="#1b232b"/></g><rect x="50" y="444" width="800" height="50" rx="16" fill="#e7f1f9"/><text x="72" y="476" font-family="Arial" font-size="18" font-weight="600" fill="#27465e">Key cue: keep spine neutral; pull elbow toward hip without twisting</text></svg>