<svg xmlns="http://www.w3.org/2000/svg" width="900" height="520" viewBox="0 0 900 520"><rect width="900" height="520" rx="28" fill="#eef5fb"/><text x="34" y="46" font-family="Arial" font-size="28" font-weight="700" fill="#142536">Overhead triceps extension</text><text x="34" y="72" font-family="Arial" font-size="16" fill="#6c7b89">Start → finish · home equipment form guide</text><rect x="50" y="98" width="395" height="330" rx="24" fill="#fff" stroke="#d8e3ed" stroke-width="2"/><text x="72" y="132" font-family="Arial" font-size="18" font-weight="700" fill="#0a64d8">START</text><rect x="455" y="98" width="395" height="330" rx="24" fill="#fff" stroke="#d8e3ed" stroke-width="2"/><text x="477" y="132" font-family="Arial" font-size="18" font-weight="700" fill="#27955f">FINISH</text><line x1="60" y1="398" x2="840" y2="398" stroke="#c9d5df" stroke-width="3"/><circle cx="250" cy="175" r="24" fill="#d59a72"/><line x1="250" y1="202" x2="250" y2="300" stroke="#174a70" stroke-width="16" stroke-linecap="round"/><line x1="250" y1="230" x2="225" y2="190" stroke="#174a70" stroke-width="13" stroke-linecap="round"/><line x1="225" y1="190" x2="250" y2="150" stroke="#174a70" stroke-width="13" stroke-linecap="round"/><line x1="250" y1="230" x2="275" y2="190" stroke="#174a70" stroke-width="13" stroke-linecap="round"/><line x1="275" y1="190" x2="250" y2="150" stroke="#174a70" stroke-width="13" stroke-linecap="round"/><line x1="250" y1="300" x2="225" y2="385" stroke="#174a70" stroke-width="13" stroke-linecap="round"/><line x1="250" y1="300" x2="275" y2="385" stroke="#174a70" stroke-width="13" stroke-linecap="round"/><g transform="translate(250 145) rotate(0) scale(0.65)"><line x1="-38" y1="0" x2="38" y2="0" stroke="#2e3944" stroke-width="8"/><rect x="-52" y="-16" width="15" height="32" rx="4" fill="#1b232b"/><rect x="37" y="-16" width="15" height="32" rx="4" fill="#1b232b"/></g><circle cx="655" cy="175" r="24" fill="#d59a72"/><line x1="655" y1="202" x2="655" y2="300" stroke="#174a70" stroke-width="16" stroke-linecap="round"/><line x1="655" y1="230" x2="630" y2="180" stroke="#174a70" stroke-width="13" stroke-linecap="round"/><line x1="630" y1="180" x2="630" y2="125" stroke="#174a70" stroke-width="13" stroke-linecap="round"/><line x1="655" y1="230" x2="680" y2="180" stroke="#174a70" stroke-width="13" stroke-linecap="round"/><line x1="680" y1="180" x2="680" y2="125" stroke="#174a70" stroke-width="13" stroke-linecap="round"/><line x1="655" y1="300" x2="630" y2="385" stroke="#174a70" stroke-width="13" stroke-linecap="round"/><line x1="655" y1="300" x2="680" y2="385" stroke="#174a70" stroke-width="13" stroke-linecap="round"/><g transform="translate(655 115) rotate(0) scale(0.65)"><line x1="-38" y1="0" x2="38" y2="0" stroke="#2e3944" stroke-width="8"/><rect x="-52" y="-16" width="15" height="32" rx="4" fill="#1b232b"/><rect x="37" y="-16" width="15" height="32" rx="4" fill="#1b232b"/></g><rect x="50" y="444" width="800" height="50" rx="16" fill="#e7f1f9"/><text x="72" y="476" font-family="Arial" font-size="18" font-weight="600" fill="#27465e">Key cue: keep upper arms mostly vertical; extend elbows without flaring</text></svg>